<svg xmlns="http://www.w3.org/2000/svg" xmlns:xlink="http://www.w3.org/1999/xlink" width="500" zoomAndPan="magnify" viewBox="0 0 375 374.999991" height="500" preserveAspectRatio="xMidYMid meet" version="1.0"><defs><g/><clipPath id="39cf70e285"><path d="M 102.496094 61.011719 L 244 61.011719 L 244 251.339844 L 102.496094 251.339844 Z M 102.496094 61.011719 " clip-rule="nonzero"/></clipPath><clipPath id="7447737b15"><path d="M 23.074219 14.496094 L 144 14.496094 L 144 128 L 23.074219 128 Z M 23.074219 14.496094 " clip-rule="nonzero"/></clipPath><clipPath id="423702d79b"><path d="M 224.132812 140 L 374.824219 140 L 374.824219 215.429688 L 224.132812 215.429688 Z M 224.132812 140 " clip-rule="nonzero"/></clipPath></defs><g clip-path="url(#39cf70e285)"><path fill="#6eb32e" d="M 219.835938 99.234375 C 219.835938 99.234375 220.191406 99.679688 220.191406 99.683594 C 220.378906 100.535156 219.164062 110.113281 208.992188 133.386719 C 204.742188 143.105469 199.117188 154.640625 192.273438 167.667969 C 191.8125 168.546875 191.289062 169.527344 190.710938 170.613281 C 187.523438 176.601562 182.800781 185.6875 177.839844 196.777344 C 170.261719 213.710938 165.363281 232.683594 165.363281 232.703125 C 165.261719 232.636719 135.335938 212.332031 108.96875 196.183594 C 109.484375 194.226562 112.339844 183.472656 120.257812 165.910156 C 125.277344 154.773438 131.015625 144.109375 137.3125 134.214844 C 137.375 134.113281 143.734375 124.074219 152.304688 105.0625 C 157.269531 94.054688 162.453125 80.949219 166.835938 68.574219 C 169.792969 71.011719 189.71875 83.484375 219.835938 99.234375 Z M 162.796875 61.269531 C 158.308594 74.777344 153.378906 87.703125 148.152344 99.695312 C 139.121094 120.398438 132.226562 131.292969 132.15625 131.398438 C 125.324219 142.136719 119.179688 153.730469 113.890625 165.855469 C 105.550781 184.984375 103.144531 195.144531 102.640625 197.285156 C 131.253906 213.785156 169.398438 240.226562 169.515625 240.300781 C 169.515625 240.28125 174.285156 219.535156 182.261719 201.09375 C 187.484375 189.015625 192.523438 179.132812 195.9375 172.621094 C 196.554688 171.445312 197.113281 170.375 197.605469 169.421875 C 204.925781 155.253906 210.894531 142.703125 215.355469 132.117188 C 226.035156 106.761719 224.84375 101.554688 224.582031 100.613281 C 224.582031 100.609375 224.5625 100.371094 224.5625 100.371094 C 224.164062 100.171875 224.894531 100.546875 226.042969 101 C 226.238281 104.183594 225.40625 110.925781 216.597656 131.863281 C 212.070312 142.617188 205.992188 155.355469 198.527344 169.722656 C 198.027344 170.691406 197.453125 171.773438 196.824219 172.96875 C 193.351562 179.550781 188.105469 189.496094 182.941406 201.765625 C 177.125 215.589844 173.242188 228.128906 170.511719 241.078125 C 171.132812 241.460938 171.757812 241.847656 172.390625 242.242188 C 172.390625 242.230469 172.390625 242.21875 172.390625 242.207031 C 175.136719 229.3125 179.003906 216.851562 184.789062 203.105469 C 189.964844 190.804688 195.222656 180.84375 198.699219 174.253906 C 199.328125 173.058594 199.898438 171.976562 200.402344 171.011719 C 207.855469 156.660156 213.925781 143.9375 218.445312 133.199219 C 228.214844 109.984375 228.054688 103.648438 227.742188 101.625 C 228.046875 101.808594 228.371094 102.003906 228.703125 102.207031 C 228.941406 105.242188 228.261719 112.21875 219.28125 133.554688 C 214.757812 144.308594 208.675781 157.046875 201.214844 171.417969 C 200.710938 172.386719 200.140625 173.46875 199.507812 174.664062 C 196.039062 181.246094 190.789062 191.191406 185.625 203.457031 C 179.8125 217.277344 175.933594 229.804688 173.203125 242.746094 C 173.824219 243.136719 174.445312 243.519531 175.078125 243.910156 C 175.078125 243.90625 175.074219 243.902344 175.074219 243.898438 C 177.820312 231.007812 181.691406 218.546875 187.476562 204.796875 C 192.648438 192.5 197.90625 182.539062 201.386719 175.945312 C 202.015625 174.75 202.585938 173.667969 203.085938 172.703125 C 210.542969 158.351562 216.613281 145.628906 221.128906 134.894531 C 231 111.4375 230.714844 104.941406 230.390625 103.019531 C 230.707031 103.214844 231.03125 103.410156 231.359375 103.613281 C 231.609375 106.601562 230.996094 113.789062 221.96875 135.25 C 217.441406 146.003906 211.363281 158.742188 203.898438 173.113281 C 203.398438 174.078125 202.824219 175.160156 202.195312 176.355469 C 198.722656 182.9375 193.476562 192.882812 188.3125 205.152344 C 182.503906 218.960938 178.625 231.480469 175.894531 244.414062 C 176.515625 244.796875 177.039062 245.070312 177.792969 245.507812 C 180.539062 232.621094 184.382812 220.222656 190.167969 206.476562 C 195.34375 194.179688 200.597656 184.21875 204.074219 177.628906 C 204.703125 176.433594 205.273438 175.351562 205.777344 174.386719 C 213.230469 160.035156 219.300781 147.3125 223.820312 136.574219 C 233.742188 112.996094 233.402344 106.542969 233.078125 104.671875 C 233.398438 104.871094 233.722656 105.070312 234.046875 105.273438 C 234.300781 108.238281 233.714844 115.410156 224.65625 136.929688 C 220.132812 147.683594 214.054688 160.421875 206.589844 174.792969 C 206.085938 175.761719 205.515625 176.84375 204.882812 178.039062 C 201.414062 184.617188 196.164062 194.566406 191.003906 206.832031 C 185.199219 220.628906 181.351562 233.074219 178.617188 246 C 179.265625 246.359375 179.867188 246.644531 180.53125 247 C 183.28125 234.128906 187.089844 221.878906 192.867188 208.15625 C 198.039062 195.859375 203.296875 185.898438 206.773438 179.304688 C 207.402344 178.113281 207.976562 177.027344 208.476562 176.0625 C 215.933594 161.710938 222.003906 148.992188 226.519531 138.253906 C 236.464844 114.621094 236.101562 108.1875 235.773438 106.339844 C 236.097656 106.539062 236.421875 106.738281 236.746094 106.941406 C 237.003906 109.898438 236.421875 117.066406 227.355469 138.609375 C 222.832031 149.363281 216.753906 162.101562 209.289062 176.472656 C 208.785156 177.4375 208.214844 178.519531 207.582031 179.71875 C 204.113281 186.296875 198.867188 196.242188 193.703125 208.511719 C 187.914062 222.269531 184.097656 234.558594 181.363281 247.449219 C 182.015625 247.796875 182.652344 248.132812 183.273438 248.457031 C 186.023438 235.65625 189.816406 223.476562 195.558594 209.832031 C 200.734375 197.535156 205.988281 187.574219 209.46875 180.980469 C 210.097656 179.789062 210.667969 178.703125 211.167969 177.738281 C 218.625 163.386719 224.695312 150.667969 229.214844 139.929688 C 239.175781 116.253906 238.792969 109.835938 238.46875 108.003906 C 238.789062 108.203125 239.113281 108.402344 239.4375 108.605469 C 239.699219 111.550781 239.125 118.710938 230.050781 140.285156 C 225.527344 151.039062 219.445312 163.777344 211.980469 178.148438 C 211.480469 179.113281 210.90625 180.199219 210.277344 181.394531 C 206.804688 187.972656 201.558594 197.917969 196.394531 210.1875 C 190.640625 223.863281 186.84375 236.074219 184.109375 248.898438 C 184.765625 249.242188 185.402344 249.578125 186.019531 249.902344 C 188.769531 237.164062 192.546875 225.066406 198.253906 211.503906 C 203.429688 199.203125 208.683594 189.242188 212.164062 182.652344 C 212.792969 181.457031 213.363281 180.375 213.863281 179.410156 C 221.320312 165.054688 227.390625 152.335938 231.910156 141.597656 C 241.886719 117.890625 241.488281 111.484375 241.160156 109.667969 C 241.488281 109.867188 241.8125 110.070312 242.132812 110.265625 C 242.394531 113.207031 241.828125 120.367188 232.746094 141.953125 C 228.222656 152.707031 222.140625 165.445312 214.675781 179.816406 C 214.175781 180.78125 213.601562 181.867188 212.972656 183.0625 C 209.5 189.640625 204.253906 199.589844 199.089844 211.855469 C 193.371094 225.453125 189.59375 237.582031 186.851562 250.335938 C 187.519531 250.683594 188.160156 251.019531 188.769531 251.339844 C 191.523438 238.667969 195.285156 226.636719 200.960938 213.148438 C 206.132812 200.851562 211.390625 190.890625 214.867188 184.296875 C 215.496094 183.101562 216.070312 182.019531 216.570312 181.054688 C 224.027344 166.703125 230.097656 153.980469 234.613281 143.246094 C 244.558594 119.617188 244.195312 113.179688 243.871094 111.332031 C 243.824219 110.671875 243.9375 108.136719 243.792969 108.039062 C 226.769531 96.636719 199.644531 83.449219 195.144531 78.417969 C 193.742188 76.851562 163.410156 61.742188 162.796875 61.269531 " fill-opacity="1" fill-rule="nonzero"/></g><path fill="#6eb32e" d="M 154.8125 140.097656 L 149.609375 136.917969 L 148.125 140.917969 L 151.886719 143.183594 C 151.941406 143.105469 152.007812 143.03125 152.085938 142.964844 C 151.597656 143.613281 151.152344 144.269531 150.769531 144.910156 C 150.761719 144.925781 150.753906 144.941406 150.742188 144.957031 L 147.113281 142.773438 L 145.628906 146.773438 L 149.195312 148.921875 C 148.164062 153.300781 148.804688 158.839844 154.179688 161.402344 C 157.617188 163.046875 161.097656 161.992188 163.585938 159.164062 C 164.117188 158.5625 164.589844 157.914062 165.015625 157.230469 C 166.160156 155.390625 167.128906 153.46875 168.632812 151.859375 C 169.597656 150.828125 170.273438 149.640625 171.847656 149.59375 C 172.421875 149.578125 172.976562 149.777344 173.402344 150.136719 C 174.886719 151.402344 174.460938 153.839844 173.953125 155.488281 C 171.792969 162.507812 166.941406 159.972656 166.941406 159.972656 L 164.320312 166.304688 C 168.574219 168.542969 172.144531 166.886719 174.761719 164.292969 L 178.691406 166.652344 L 180.359375 162.792969 L 177.378906 161 C 177.5 160.808594 177.621094 160.617188 177.734375 160.429688 C 177.976562 160.027344 178.203125 159.582031 178.417969 159.101562 L 181.183594 160.800781 L 182.855469 156.941406 L 179.585938 154.9375 C 180.144531 150.855469 179.113281 146.21875 174.324219 143.933594 C 170.894531 142.296875 167.417969 143.34375 164.929688 146.164062 C 163.640625 147.628906 162.867188 149.429688 161.808594 151.042969 C 160.816406 152.554688 159.835938 153.992188 158.347656 155.046875 C 157.332031 155.765625 156.109375 156.058594 155.101562 155.199219 C 153.621094 153.933594 154.046875 151.496094 154.550781 149.851562 C 156.714844 142.832031 161.566406 145.367188 161.566406 145.367188 L 164.1875 139.03125 C 160.480469 137.085938 157.304688 138.09375 154.8125 140.097656 " fill-opacity="1" fill-rule="nonzero"/><path fill="#6eb32e" d="M 175.445312 135.976562 C 186.519531 142.964844 189.601562 155.128906 184.949219 164.574219 C 179.753906 175.121094 165.429688 174.859375 154.355469 167.871094 C 143.285156 160.886719 140.550781 148.875 144.851562 139.273438 C 149.367188 129.199219 161.609375 127.25 175.445312 135.976562 Z M 164.164062 88.148438 C 161.304688 95.140625 158.351562 101.902344 155.328125 108.351562 C 147.03125 126.046875 141.015625 135.414062 140.953125 135.507812 C 134.996094 144.734375 129.515625 154.671875 124.652344 165.035156 C 121.8125 171.101562 119.621094 176.289062 117.964844 180.511719 C 118.257812 180.621094 118.550781 180.734375 118.84375 180.859375 C 126.171875 184.054688 129.6875 192.199219 126.699219 199.050781 C 126.410156 199.71875 126.066406 200.34375 125.679688 200.933594 C 134.996094 206.984375 144.148438 213.15625 151.027344 217.855469 C 154.445312 213.128906 160.855469 211.128906 166.867188 213.054688 C 168.898438 207.277344 171.617188 200.195312 174.90625 193.132812 C 179.714844 182.808594 184.238281 174.34375 187.289062 168.765625 C 187.839844 167.753906 188.339844 166.839844 188.78125 166.023438 C 195.335938 153.882812 200.746094 143.144531 204.867188 134.097656 C 207.808594 127.648438 210.363281 121.105469 211.859375 116.910156 C 211.332031 116.746094 210.667969 116.628906 210.148438 116.402344 C 202.820312 113.207031 198.988281 106.277344 201.976562 99.425781 C 202.269531 98.746094 202.625 98.101562 203.023438 97.5 C 194.011719 92.28125 186.515625 87.582031 180.855469 83.851562 C 177.21875 88.71875 170.378906 90.605469 164.164062 88.148438 " fill-opacity="1" fill-rule="nonzero"/><g clip-path="url(#7447737b15)"><path fill="#f9a72c" d="M 123.554688 123.898438 C 124.097656 124.929688 124.460938 126.0625 124.667969 127.265625 L 143.007812 90.070312 C 140.808594 71.851562 133.09375 61.277344 127.960938 56.105469 C 121.414062 49.894531 112.191406 44.46875 99.207031 42.007812 C 59.125 34.410156 36.257812 29.246094 23.074219 14.660156 C 23.074219 14.660156 34.375 48.085938 77.148438 58.417969 C 77.148438 58.417969 100.058594 62.671875 115.125 82.726562 C 115.125 82.726562 97.324219 70.269531 74.191406 66.621094 C 51.050781 62.976562 35.179688 45.351562 35.179688 45.351562 C 35.179688 45.351562 52.128906 79.382812 83.335938 85.460938 C 86.136719 86.007812 88.714844 86.542969 91.101562 87.074219 C 95.4375 88.277344 101.507812 90.546875 107.296875 94.710938 C 97.542969 93.050781 84.453125 90.800781 79.03125 89.714844 C 69.886719 87.894531 56.433594 81.207031 51.59375 76.042969 C 51.59375 76.042969 62.835938 99.972656 86.265625 105.210938 C 106.1875 109.671875 119.453125 116.152344 123.554688 123.898438 " fill-opacity="1" fill-rule="nonzero"/></g><g clip-path="url(#423702d79b)"><path fill="#f9a72c" d="M 227.667969 183.351562 C 226.511719 183.5 225.375 183.851562 224.273438 184.375 L 244.125 147.96875 C 260.285156 139.273438 273.375 139.492188 280.558594 140.710938 C 289.402344 142.488281 299.152344 146.90625 308.636719 156.105469 C 337.929688 184.503906 355.316406 200.226562 374.832031 202.605469 C 374.832031 202.605469 341 212.613281 307.925781 183.589844 C 307.925781 183.589844 291.253906 167.304688 266.183594 166.535156 C 266.183594 166.535156 286.617188 173.914062 302.917969 190.730469 C 319.222656 207.550781 342.769531 210.378906 342.769531 210.378906 C 342.769531 210.378906 305.1875 216.117188 282.25 194.101562 C 280.191406 192.125 278.265625 190.328125 276.460938 188.679688 C 272.980469 185.828125 267.625 182.171875 260.890625 179.835938 C 267.863281 186.855469 277.242188 196.257812 281.25 200.070312 C 288.007812 206.496094 301.21875 213.648438 308.230469 214.632812 C 308.230469 214.632812 282.1875 219.21875 264.414062 203.078125 C 249.296875 189.355469 236.359375 182.242188 227.667969 183.351562 " fill-opacity="1" fill-rule="nonzero"/></g><g fill="#6eb32e" fill-opacity="1"><g transform="translate(59.874543, 287.129445)"><g><path d="M 12.34375 -1.484375 L 12.234375 0 L 1.03125 0 L 0.859375 -0.9375 C 1.921875 -1.476562 3.222656 -1.957031 4.765625 -2.375 L 4.765625 -14.828125 L 1.375 -13.40625 L 0.421875 -15.0625 L 7.0625 -19.140625 L 8.921875 -17.921875 L 8.921875 -2.03125 Z M 12.34375 -1.484375 "/></g></g></g><g fill="#6eb32e" fill-opacity="1"><g transform="translate(76.474651, 287.129445)"><g><path d="M 13.09375 -4.65625 L 13.09375 -1.828125 L 15.296875 -1.484375 L 15.171875 0 L 5.921875 0 L 5.75 -0.9375 C 6.644531 -1.394531 7.75 -1.828125 9.0625 -2.234375 L 9.0625 -4.65625 L 1.375 -4.65625 L 0.484375 -6.96875 L 9.890625 -19.140625 L 11.96875 -18.75 L 11.96875 -18.6875 L 13.09375 -18.75 L 13.09375 -7.375 L 16.296875 -7.453125 L 16.375 -5.453125 L 15.515625 -4.65625 Z M 9.0625 -7.28125 L 9.0625 -12.234375 L 9.28125 -14.65625 L 4.3125 -7.171875 Z M 9.0625 -7.28125 "/></g></g></g><g fill="#6eb32e" fill-opacity="1"><g transform="translate(97.646097, 287.129445)"><g/></g></g><g fill="#6eb32e" fill-opacity="1"><g transform="translate(109.303456, 287.129445)"><g><path d="M 10.34375 -19.03125 C 12.300781 -19.03125 13.988281 -18.570312 15.40625 -17.65625 C 16.832031 -16.75 17.914062 -15.570312 18.65625 -14.125 C 19.40625 -12.675781 19.78125 -11.148438 19.78125 -9.546875 C 19.78125 -6.765625 18.914062 -4.492188 17.1875 -2.734375 C 15.46875 -0.984375 13.175781 -0.0703125 10.3125 0 L 0.921875 0 L 0.75 -0.921875 C 1.300781 -1.273438 2.109375 -1.664062 3.171875 -2.09375 L 3.171875 -17.09375 L 1.140625 -17.34375 L 1.171875 -18.796875 C 3.910156 -18.953125 6.96875 -19.03125 10.34375 -19.03125 Z M 9.6875 -2.375 C 11.320312 -2.375 12.648438 -3.03125 13.671875 -4.34375 C 14.691406 -5.65625 15.203125 -7.332031 15.203125 -9.375 C 15.203125 -10.957031 14.875 -12.429688 14.21875 -13.796875 C 13.5625 -15.171875 12.707031 -16.171875 11.65625 -16.796875 L 7.515625 -16.375 L 7.515625 -2.71875 C 8.296875 -2.488281 9.019531 -2.375 9.6875 -2.375 Z M 9.6875 -2.375 "/></g></g></g><g fill="#6eb32e" fill-opacity="1"><g transform="translate(133.560558, 287.129445)"><g><path d="M 20.75 -1.453125 L 20.71875 0 L 11.71875 0 L 11.546875 -0.921875 C 12.078125 -1.242188 12.90625 -1.640625 14.03125 -2.109375 L 12.828125 -5.203125 L 6.03125 -5.203125 L 4.765625 -1.828125 L 7.40625 -1.453125 L 7.375 0 L -0.40625 0 L -0.578125 -0.921875 C -0.00390625 -1.273438 0.785156 -1.65625 1.796875 -2.0625 L 8.109375 -17.578125 L 7.765625 -18.46875 L 11.515625 -19.484375 L 18.71875 -1.75 Z M 12 -7.375 L 9.4375 -14.125 L 6.859375 -7.375 Z M 12 -7.375 "/></g></g></g><g fill="#6eb32e" fill-opacity="1"><g transform="translate(158.189088, 287.129445)"><g><path d="M 11.34375 -1.796875 L 13.71875 -1.453125 L 13.6875 0 L 4.96875 0 L 4.796875 -0.921875 C 5.390625 -1.273438 6.160156 -1.65625 7.109375 -2.0625 L 7.109375 -7.0625 L 1.75 -17.09375 L -0.0625 -17.34375 L -0.03125 -18.796875 L 7.609375 -18.796875 L 7.765625 -17.890625 L 6.171875 -17.0625 L 8.859375 -12 L 9.625 -9.578125 L 9.796875 -9.578125 L 13.546875 -17.03125 L 11.4375 -17.34375 L 11.453125 -18.796875 L 18.4375 -18.796875 L 18.609375 -17.890625 C 18.109375 -17.585938 17.351562 -17.21875 16.34375 -16.78125 L 11.34375 -7.515625 Z M 11.34375 -1.796875 "/></g></g></g><g fill="#6eb32e" fill-opacity="1"><g transform="translate(180.76051, 287.129445)"><g><path d="M 15.40625 -5.171875 C 15.40625 -3.472656 14.734375 -2.085938 13.390625 -1.015625 C 12.046875 0.046875 10.351562 0.578125 8.3125 0.578125 C 7.207031 0.578125 6.003906 0.410156 4.703125 0.078125 C 3.410156 -0.253906 2.347656 -0.695312 1.515625 -1.25 L 1.484375 -2.0625 C 1.484375 -3.632812 1.632812 -5.140625 1.9375 -6.578125 L 4 -6.578125 L 5.40625 -2.578125 C 6.601562 -2.023438 7.972656 -1.75 9.515625 -1.75 C 10.566406 -2.238281 11.09375 -3.035156 11.09375 -4.140625 C 11.09375 -5.148438 10.472656 -6 9.234375 -6.6875 L 4.9375 -8.859375 C 2.675781 -10.148438 1.546875 -11.78125 1.546875 -13.75 C 1.546875 -15.40625 2.226562 -16.753906 3.59375 -17.796875 C 4.96875 -18.847656 6.734375 -19.375 8.890625 -19.375 C 10.796875 -19.375 12.679688 -19.03125 14.546875 -18.34375 C 14.546875 -16.320312 14.382812 -14.582031 14.0625 -13.125 L 11.78125 -13.125 L 10.953125 -16.3125 C 9.835938 -16.882812 8.507812 -17.15625 6.96875 -17.125 C 6.09375 -16.570312 5.65625 -15.796875 5.65625 -14.796875 C 5.65625 -14.234375 5.90625 -13.71875 6.40625 -13.25 C 6.914062 -12.78125 7.945312 -12.191406 9.5 -11.484375 C 11.050781 -10.785156 12.191406 -10.179688 12.921875 -9.671875 C 13.660156 -9.171875 14.257812 -8.550781 14.71875 -7.8125 C 15.175781 -7.082031 15.40625 -6.203125 15.40625 -5.171875 Z M 15.40625 -5.171875 "/></g></g></g><g fill="#6eb32e" fill-opacity="1"><g transform="translate(201.360545, 287.129445)"><g/></g></g><g fill="#6eb32e" fill-opacity="1"><g transform="translate(213.017906, 287.129445)"><g><path d="M 26.515625 -1.34375 L 26.484375 0 L 17.40625 0 L 17.234375 -0.921875 C 17.785156 -1.273438 18.59375 -1.664062 19.65625 -2.09375 L 19.578125 -9.78125 L 19.96875 -14.65625 L 14.6875 -0.453125 L 11.40625 0.203125 L 6.09375 -14.515625 L 6.546875 -9.78125 L 6.40625 -1.828125 L 8.796875 -1.34375 L 8.78125 0 L 0.890625 0 L 0.71875 -0.921875 C 1.34375 -1.296875 2.191406 -1.703125 3.265625 -2.140625 L 3.65625 -16.75 L 1.3125 -17.234375 L 1.34375 -18.578125 L 8.890625 -18.578125 L 8.859375 -18.546875 L 13.921875 -4.453125 L 19.09375 -18.578125 L 25.75 -18.578125 L 25.921875 -17.65625 C 25.304688 -17.28125 24.523438 -16.898438 23.578125 -16.515625 L 23.828125 -1.890625 Z M 26.515625 -1.34375 "/></g></g></g><g fill="#6eb32e" fill-opacity="1"><g transform="translate(244.360593, 287.129445)"><g><path d="M 9.546875 -19.375 C 12.265625 -19.375 14.5 -18.425781 16.25 -16.53125 C 18.007812 -14.632812 18.890625 -12.171875 18.890625 -9.140625 C 18.890625 -6.222656 18.035156 -3.875 16.328125 -2.09375 C 14.628906 -0.3125 12.445312 0.578125 9.78125 0.578125 C 7.03125 0.578125 4.78125 -0.328125 3.03125 -2.140625 C 1.28125 -3.953125 0.40625 -6.332031 0.40625 -9.28125 C 0.40625 -12.257812 1.265625 -14.6875 2.984375 -16.5625 C 4.710938 -18.4375 6.898438 -19.375 9.546875 -19.375 Z M 7.09375 -16.46875 C 6.457031 -15.925781 5.941406 -15.054688 5.546875 -13.859375 C 5.160156 -12.660156 4.96875 -11.304688 4.96875 -9.796875 C 4.96875 -7.492188 5.425781 -5.609375 6.34375 -4.140625 C 7.257812 -2.671875 8.566406 -1.9375 10.265625 -1.9375 C 10.703125 -1.9375 11.242188 -2.023438 11.890625 -2.203125 C 12.609375 -2.773438 13.1875 -3.675781 13.625 -4.90625 C 14.0625 -6.144531 14.28125 -7.53125 14.28125 -9.0625 C 14.28125 -11.363281 13.8125 -13.238281 12.875 -14.6875 C 11.945312 -16.132812 10.710938 -16.859375 9.171875 -16.859375 C 8.523438 -16.859375 7.832031 -16.726562 7.09375 -16.46875 Z M 7.09375 -16.46875 "/></g></g></g><g fill="#6eb32e" fill-opacity="1"><g transform="translate(267.732001, 287.129445)"><g><path d="M 21.34375 -17.890625 C 20.757812 -17.523438 19.988281 -17.144531 19.03125 -16.75 L 18.921875 0 L 14.890625 0.375 L 5.859375 -13.484375 L 6.28125 -9.96875 L 6.28125 -1.828125 L 8.796875 -1.453125 L 8.78125 0 L 0.921875 0 L 0.75 -0.921875 C 1.300781 -1.273438 2.109375 -1.664062 3.171875 -2.09375 L 3.171875 -17.03125 L 1.171875 -17.34375 L 1.203125 -18.796875 L 7.546875 -18.796875 L 7.515625 -18.78125 L 16.34375 -4.96875 L 15.921875 -8.609375 L 15.921875 -16.953125 L 13.140625 -17.34375 L 13.171875 -18.796875 L 21.171875 -18.796875 Z M 21.34375 -17.890625 "/></g></g></g><g fill="#6eb32e" fill-opacity="1"><g transform="translate(293.931923, 287.129445)"><g><path d="M 16.203125 -5.6875 C 16.242188 -3.820312 16.128906 -1.925781 15.859375 0 L 0.921875 0 L 0.75 -0.921875 C 1.300781 -1.273438 2.109375 -1.664062 3.171875 -2.09375 L 3.171875 -17.09375 L 1.0625 -17.34375 L 1.09375 -18.796875 L 16 -18.796875 C 16.09375 -17.242188 15.941406 -15.4375 15.546875 -13.375 L 13.140625 -13.375 L 12.65625 -16.203125 L 7.515625 -16.578125 L 7.515625 -10.4375 L 13.65625 -10.921875 L 13.65625 -8.03125 L 7.515625 -8.28125 L 7.515625 -2.375 L 12.859375 -2.75 L 13.796875 -5.859375 Z M 16.203125 -5.6875 "/></g></g></g><g fill="#6eb32e" fill-opacity="1"><g transform="translate(315.646217, 287.129445)"><g><path d="M 11.34375 -1.796875 L 13.71875 -1.453125 L 13.6875 0 L 4.96875 0 L 4.796875 -0.921875 C 5.390625 -1.273438 6.160156 -1.65625 7.109375 -2.0625 L 7.109375 -7.0625 L 1.75 -17.09375 L -0.0625 -17.34375 L -0.03125 -18.796875 L 7.609375 -18.796875 L 7.765625 -17.890625 L 6.171875 -17.0625 L 8.859375 -12 L 9.625 -9.578125 L 9.796875 -9.578125 L 13.546875 -17.03125 L 11.4375 -17.34375 L 11.453125 -18.796875 L 18.4375 -18.796875 L 18.609375 -17.890625 C 18.109375 -17.585938 17.351562 -17.21875 16.34375 -16.78125 L 11.34375 -7.515625 Z M 11.34375 -1.796875 "/></g></g></g><g fill="#6eb32e" fill-opacity="1"><g transform="translate(152.47307, 327.050405)"><g><path d="M 13.65625 -9.96875 C 15.101562 -9.707031 16.222656 -9.132812 17.015625 -8.25 C 17.804688 -7.375 18.203125 -6.359375 18.203125 -5.203125 C 18.203125 -3.660156 17.539062 -2.421875 16.21875 -1.484375 C 14.894531 -0.546875 13.085938 -0.0507812 10.796875 0 L 0.921875 0 L 0.75 -0.921875 C 1.300781 -1.273438 2.109375 -1.664062 3.171875 -2.09375 L 3.171875 -17.09375 L 1.140625 -17.34375 L 1.171875 -18.796875 C 3.953125 -18.953125 6.925781 -19.03125 10.09375 -19.03125 C 12.257812 -19.03125 14 -18.582031 15.3125 -17.6875 C 16.632812 -16.789062 17.296875 -15.628906 17.296875 -14.203125 C 17.296875 -13.253906 16.984375 -12.367188 16.359375 -11.546875 C 15.742188 -10.722656 14.84375 -10.195312 13.65625 -9.96875 Z M 7.515625 -16.375 L 7.515625 -10.75 L 8.828125 -10.75 C 10.179688 -10.75 11.195312 -11.035156 11.875 -11.609375 C 12.550781 -12.191406 12.890625 -12.90625 12.890625 -13.75 C 12.890625 -14.4375 12.675781 -15.078125 12.25 -15.671875 C 11.820312 -16.273438 11.28125 -16.648438 10.625 -16.796875 Z M 9.796875 -2.203125 L 10.28125 -2.171875 C 11.351562 -2.171875 12.175781 -2.472656 12.75 -3.078125 C 13.320312 -3.691406 13.609375 -4.421875 13.609375 -5.265625 C 13.609375 -6.234375 13.257812 -7.066406 12.5625 -7.765625 C 11.863281 -8.472656 10.988281 -8.835938 9.9375 -8.859375 L 7.515625 -8.859375 L 7.515625 -2.421875 Z M 9.796875 -2.203125 "/></g></g></g><g fill="#6eb32e" fill-opacity="1"><g transform="translate(175.644484, 327.050405)"><g><path d="M 20.75 -1.453125 L 20.71875 0 L 11.71875 0 L 11.546875 -0.921875 C 12.078125 -1.242188 12.90625 -1.640625 14.03125 -2.109375 L 12.828125 -5.203125 L 6.03125 -5.203125 L 4.765625 -1.828125 L 7.40625 -1.453125 L 7.375 0 L -0.40625 0 L -0.578125 -0.921875 C -0.00390625 -1.273438 0.785156 -1.65625 1.796875 -2.0625 L 8.109375 -17.578125 L 7.765625 -18.46875 L 11.515625 -19.484375 L 18.71875 -1.75 Z M 12 -7.375 L 9.4375 -14.125 L 6.859375 -7.375 Z M 12 -7.375 "/></g></g></g><g fill="#6eb32e" fill-opacity="1"><g transform="translate(200.273011, 327.050405)"><g><path d="M 16.296875 -2.0625 L 10.4375 0.453125 C 8.09375 0.535156 6.160156 0.117188 4.640625 -0.796875 C 3.128906 -1.710938 2.03125 -2.90625 1.34375 -4.375 C 0.65625 -5.851562 0.3125 -7.453125 0.3125 -9.171875 C 0.3125 -10.921875 0.671875 -12.578125 1.390625 -14.140625 C 2.117188 -15.703125 3.207031 -16.960938 4.65625 -17.921875 C 6.101562 -18.890625 7.859375 -19.375 9.921875 -19.375 C 12.128906 -19.375 14.085938 -18.773438 15.796875 -17.578125 C 15.835938 -16.960938 15.800781 -16.140625 15.6875 -15.109375 C 15.570312 -14.085938 15.398438 -13.195312 15.171875 -12.4375 L 12.546875 -12.4375 L 11.859375 -16 C 10.546875 -16.570312 9.109375 -16.859375 7.546875 -16.859375 C 6.609375 -16.148438 5.90625 -15.15625 5.4375 -13.875 C 4.976562 -12.601562 4.75 -11.265625 4.75 -9.859375 C 4.75 -7.585938 5.300781 -5.785156 6.40625 -4.453125 C 7.507812 -3.117188 9.003906 -2.484375 10.890625 -2.546875 L 15.609375 -4.09375 Z M 16.296875 -2.0625 "/></g></g></g><g fill="#6eb32e" fill-opacity="1"><g transform="translate(220.987321, 327.050405)"><g><path d="M 20.296875 -1.484375 L 20.265625 0 L 14.515625 0 L 8.6875 -8.171875 L 7.515625 -6.9375 L 7.515625 -1.796875 L 9.921875 -1.453125 L 9.890625 0 L 0.921875 0 L 0.75 -0.921875 C 1.300781 -1.273438 2.109375 -1.664062 3.171875 -2.09375 L 3.171875 -17.03125 L 0.9375 -17.34375 L 0.96875 -18.796875 L 9.75 -18.796875 L 9.921875 -17.890625 C 9.210938 -17.472656 8.410156 -17.082031 7.515625 -16.71875 L 7.515625 -10.3125 L 13.828125 -17.0625 L 11.953125 -17.34375 L 11.96875 -18.796875 L 19.0625 -18.796875 L 19.234375 -17.890625 C 18.835938 -17.617188 18.046875 -17.265625 16.859375 -16.828125 L 11.515625 -11.171875 L 18.515625 -1.765625 Z M 20.296875 -1.484375 "/></g></g></g><g fill="#f9a72c" fill-opacity="1"><g transform="translate(223.24381, 358.822851)"><g><path d="M 3.765625 -4.1875 L 6.71875 -4.1875 L 6.71875 -0.328125 C 6.238281 -0.171875 5.785156 -0.0625 5.359375 0 C 4.941406 0.0703125 4.515625 0.109375 4.078125 0.109375 C 2.953125 0.109375 2.09375 -0.21875 1.5 -0.875 C 0.90625 -1.539062 0.609375 -2.492188 0.609375 -3.734375 C 0.609375 -4.941406 0.953125 -5.878906 1.640625 -6.546875 C 2.328125 -7.222656 3.28125 -7.5625 4.5 -7.5625 C 5.257812 -7.5625 6 -7.40625 6.71875 -7.09375 L 6.1875 -5.828125 C 5.644531 -6.109375 5.078125 -6.25 4.484375 -6.25 C 3.804688 -6.25 3.257812 -6.015625 2.84375 -5.546875 C 2.4375 -5.085938 2.234375 -4.472656 2.234375 -3.703125 C 2.234375 -2.890625 2.394531 -2.269531 2.71875 -1.84375 C 3.050781 -1.425781 3.535156 -1.21875 4.171875 -1.21875 C 4.503906 -1.21875 4.835938 -1.25 5.171875 -1.3125 L 5.171875 -2.875 L 3.765625 -2.875 Z M 3.765625 -4.1875 "/></g></g></g><g fill="#f9a72c" fill-opacity="1"><g transform="translate(239.147869, 358.822851)"><g><path d="M 7 -7.453125 L 7 -2.625 C 7 -2.070312 6.875 -1.585938 6.625 -1.171875 C 6.382812 -0.765625 6.03125 -0.445312 5.5625 -0.21875 C 5.09375 0 4.546875 0.109375 3.921875 0.109375 C 2.960938 0.109375 2.21875 -0.132812 1.6875 -0.625 C 1.15625 -1.125 0.890625 -1.800781 0.890625 -2.65625 L 0.890625 -7.453125 L 2.46875 -7.453125 L 2.46875 -2.890625 C 2.46875 -2.316406 2.582031 -1.894531 2.8125 -1.625 C 3.039062 -1.351562 3.421875 -1.21875 3.953125 -1.21875 C 4.472656 -1.21875 4.847656 -1.351562 5.078125 -1.625 C 5.304688 -1.894531 5.421875 -2.320312 5.421875 -2.90625 L 5.421875 -7.453125 Z M 7 -7.453125 "/></g></g></g><g fill="#f9a72c" fill-opacity="1"><g transform="translate(255.383041, 358.822851)"><g><path d="M 5.5 0 L 4.953125 -1.78125 L 2.25 -1.78125 L 1.703125 0 L 0 0 L 2.625 -7.484375 L 4.5625 -7.484375 L 7.203125 0 Z M 4.578125 -3.09375 C 4.078125 -4.707031 3.796875 -5.617188 3.734375 -5.828125 C 3.671875 -6.035156 3.628906 -6.203125 3.609375 -6.328125 C 3.492188 -5.890625 3.171875 -4.8125 2.640625 -3.09375 Z M 4.578125 -3.09375 "/></g></g></g><g fill="#f9a72c" fill-opacity="1"><g transform="translate(270.93051, 358.822851)"><g><path d="M 2.515625 -4.140625 L 3.03125 -4.140625 C 3.53125 -4.140625 3.894531 -4.222656 4.125 -4.390625 C 4.363281 -4.554688 4.484375 -4.816406 4.484375 -5.171875 C 4.484375 -5.523438 4.363281 -5.773438 4.125 -5.921875 C 3.882812 -6.078125 3.507812 -6.15625 3 -6.15625 L 2.515625 -6.15625 Z M 2.515625 -2.859375 L 2.515625 0 L 0.9375 0 L 0.9375 -7.453125 L 3.109375 -7.453125 C 4.117188 -7.453125 4.863281 -7.265625 5.34375 -6.890625 C 5.832031 -6.523438 6.078125 -5.96875 6.078125 -5.21875 C 6.078125 -4.78125 5.957031 -4.390625 5.71875 -4.046875 C 5.476562 -3.703125 5.140625 -3.4375 4.703125 -3.25 C 5.816406 -1.570312 6.546875 -0.488281 6.890625 0 L 5.140625 0 L 3.359375 -2.859375 Z M 2.515625 -2.859375 "/></g></g></g><g fill="#f9a72c" fill-opacity="1"><g transform="translate(286.167234, 358.822851)"><g><path d="M 5.5 0 L 4.953125 -1.78125 L 2.25 -1.78125 L 1.703125 0 L 0 0 L 2.625 -7.484375 L 4.5625 -7.484375 L 7.203125 0 Z M 4.578125 -3.09375 C 4.078125 -4.707031 3.796875 -5.617188 3.734375 -5.828125 C 3.671875 -6.035156 3.628906 -6.203125 3.609375 -6.328125 C 3.492188 -5.890625 3.171875 -4.8125 2.640625 -3.09375 Z M 4.578125 -3.09375 "/></g></g></g><g fill="#f9a72c" fill-opacity="1"><g transform="translate(301.714705, 358.822851)"><g><path d="M 7.546875 0 L 5.546875 0 L 2.296875 -5.640625 L 2.25 -5.640625 C 2.3125 -4.640625 2.34375 -3.925781 2.34375 -3.5 L 2.34375 0 L 0.9375 0 L 0.9375 -7.453125 L 2.9375 -7.453125 L 6.171875 -1.875 L 6.203125 -1.875 C 6.148438 -2.84375 6.125 -3.523438 6.125 -3.921875 L 6.125 -7.453125 L 7.546875 -7.453125 Z M 7.546875 0 "/></g></g></g><g fill="#f9a72c" fill-opacity="1"><g transform="translate(318.545897, 358.822851)"><g><path d="M 3.8125 0 L 2.234375 0 L 2.234375 -6.140625 L 0.203125 -6.140625 L 0.203125 -7.453125 L 5.828125 -7.453125 L 5.828125 -6.140625 L 3.8125 -6.140625 Z M 3.8125 0 "/></g></g></g><g fill="#f9a72c" fill-opacity="1"><g transform="translate(332.93699, 358.822851)"><g><path d="M 5.234375 0 L 0.9375 0 L 0.9375 -7.453125 L 5.234375 -7.453125 L 5.234375 -6.15625 L 2.515625 -6.15625 L 2.515625 -4.515625 L 5.046875 -4.515625 L 5.046875 -3.21875 L 2.515625 -3.21875 L 2.515625 -1.3125 L 5.234375 -1.3125 Z M 5.234375 0 "/></g></g></g><g fill="#f9a72c" fill-opacity="1"><g transform="translate(347.129424, 358.822851)"><g><path d="M 5.234375 0 L 0.9375 0 L 0.9375 -7.453125 L 5.234375 -7.453125 L 5.234375 -6.15625 L 2.515625 -6.15625 L 2.515625 -4.515625 L 5.046875 -4.515625 L 5.046875 -3.21875 L 2.515625 -3.21875 L 2.515625 -1.3125 L 5.234375 -1.3125 Z M 5.234375 0 "/></g></g></g></svg>