<svg xmlns="http://www.w3.org/2000/svg" xmlns:xlink="http://www.w3.org/1999/xlink" width="500" zoomAndPan="magnify" viewBox="0 0 375 374.999991" height="500" preserveAspectRatio="xMidYMid meet" version="1.0"><defs><g/><clipPath id="08bdf4c79b"><path d="M 51.65625 17.386719 L 337.40625 17.386719 L 337.40625 275 L 51.65625 275 Z M 51.65625 17.386719 " clip-rule="nonzero"/></clipPath><clipPath id="07e6c679a9"><path d="M 123 199 L 266 199 L 266 303.136719 L 123 303.136719 Z M 123 199 " clip-rule="nonzero"/></clipPath></defs><g clip-path="url(#08bdf4c79b)"><path fill="#0098da" d="M 298.144531 258.632812 L 336.996094 253.988281 L 312.195312 241.328125 C 328.09375 218.296875 337.402344 190.359375 337.402344 160.257812 C 337.402344 81.351562 273.433594 17.386719 194.53125 17.386719 C 115.625 17.386719 51.65625 81.351562 51.65625 160.257812 C 51.65625 207.152344 74.246094 248.773438 109.140625 274.824219 C 111.628906 262.46875 115.449219 250.894531 120.382812 240.429688 C 98.824219 220.480469 85.328125 191.949219 85.328125 160.257812 C 85.328125 99.945312 134.21875 51.054688 194.53125 51.054688 C 254.839844 51.054688 303.730469 99.945312 303.730469 160.257812 C 303.730469 182.011719 297.375 202.28125 286.40625 219.304688 L 281.710938 209.953125 L 274.027344 194.652344 L 272.300781 223.652344 L 271.460938 237.765625 L 270.992188 245.621094 L 270.015625 261.996094 L 276.550781 261.214844 Z M 298.144531 258.632812 " fill-opacity="1" fill-rule="evenodd"/></g><path fill="#323748" d="M 294.753906 155.527344 C 294.820312 157.09375 294.863281 158.671875 294.863281 160.257812 C 294.863281 161.847656 294.820312 163.421875 294.753906 164.988281 L 268.050781 164.988281 C 268.148438 163.460938 268.195312 161.921875 268.195312 160.371094 C 268.195312 158.742188 268.144531 157.128906 268.039062 155.527344 Z M 294.753906 155.527344 " fill-opacity="1" fill-rule="evenodd"/><path fill="#323748" d="M 133.171875 201.148438 L 110.09375 214.472656 C 108.390625 211.824219 106.808594 209.09375 105.351562 206.28125 L 128.445312 192.949219 C 129.84375 195.792969 131.425781 198.527344 133.171875 201.148438 Z M 133.171875 201.148438 " fill-opacity="1" fill-rule="evenodd"/><path fill="#323748" d="M 94.304688 164.988281 C 94.234375 163.421875 94.195312 161.847656 94.195312 160.257812 C 94.195312 158.671875 94.234375 157.09375 94.304688 155.527344 L 121.023438 155.527344 C 120.917969 157.128906 120.867188 158.742188 120.867188 160.371094 C 120.867188 161.921875 120.914062 163.460938 121.007812 164.988281 Z M 94.304688 164.988281 " fill-opacity="1" fill-rule="evenodd"/><path fill="#323748" d="M 105.351562 114.238281 C 106.804688 111.425781 108.390625 108.691406 110.09375 106.042969 L 133.277344 119.433594 C 131.527344 122.046875 129.9375 124.777344 128.53125 127.617188 Z M 105.351562 114.238281 " fill-opacity="1" fill-rule="evenodd"/><path fill="#323748" d="M 140.316406 75.820312 C 142.964844 74.117188 145.695312 72.535156 148.507812 71.082031 L 161.914062 94.300781 C 159.074219 95.703125 156.335938 97.289062 153.71875 99.035156 Z M 140.316406 75.820312 " fill-opacity="1" fill-rule="evenodd"/><path fill="#323748" d="M 189.796875 60.039062 C 191.367188 59.964844 192.941406 59.929688 194.53125 59.929688 C 196.117188 59.929688 197.691406 59.964844 199.261719 60.039062 L 199.261719 86.855469 C 197.695312 86.753906 196.121094 86.703125 194.53125 86.703125 C 192.941406 86.703125 191.363281 86.753906 189.796875 86.855469 Z M 189.796875 60.039062 " fill-opacity="1" fill-rule="evenodd"/><path fill="#323748" d="M 240.550781 71.082031 C 243.363281 72.535156 246.097656 74.117188 248.742188 75.820312 L 235.34375 99.03125 C 232.726562 97.289062 229.984375 95.703125 227.144531 94.300781 Z M 240.550781 71.082031 " fill-opacity="1" fill-rule="evenodd"/><path fill="#323748" d="M 278.964844 106.042969 C 280.667969 108.691406 282.253906 111.425781 283.707031 114.238281 L 260.53125 127.617188 C 259.121094 124.777344 257.53125 122.046875 255.78125 119.433594 Z M 278.964844 106.042969 " fill-opacity="1" fill-rule="evenodd"/><path fill="#323748" d="M 194.53125 187.019531 C 176.535156 187.019531 161.945312 172.429688 161.945312 154.4375 C 161.945312 136.4375 176.535156 121.851562 194.53125 121.851562 C 212.523438 121.851562 227.113281 136.4375 227.113281 154.4375 C 227.113281 172.429688 212.523438 187.019531 194.53125 187.019531 Z M 194.53125 187.019531 " fill-opacity="1" fill-rule="evenodd"/><g clip-path="url(#07e6c679a9)"><path fill="#323748" d="M 265.980469 284.015625 C 244.964844 296.175781 220.554688 303.136719 194.53125 303.136719 C 168.503906 303.136719 144.101562 296.175781 123.078125 284.015625 C 130.550781 235.851562 159.707031 199.933594 194.53125 199.933594 C 229.355469 199.933594 258.507812 235.851562 265.980469 284.015625 Z M 265.980469 284.015625 " fill-opacity="1" fill-rule="evenodd"/></g><g fill="#323748" fill-opacity="1"><g transform="translate(48.684428, 343.973115)"><g><path d="M 19.078125 -19.4375 L 19.078125 -12.203125 L 14.984375 -12.203125 L 14.984375 -15.765625 L 12.65625 -15.765625 L 12.65625 -3.703125 L 14.96875 -3.703125 L 14.96875 0 L 4.609375 0 L 4.609375 -3.703125 L 6.890625 -3.703125 L 6.890625 -15.765625 L 4.5 -15.765625 L 4.5 -12.203125 L 0.421875 -12.203125 L 0.421875 -19.4375 Z M 19.078125 -19.4375 "/></g></g></g><g fill="#323748" fill-opacity="1"><g transform="translate(72.071743, 343.973115)"><g><path d="M 0.6875 -19.4375 L 9.921875 -19.4375 L 9.921875 -15.765625 L 8.203125 -15.765625 L 8.203125 -3.703125 L 9.921875 -3.703125 L 9.921875 0 L 0.6875 0 L 0.6875 -3.703125 L 2.453125 -3.703125 L 2.453125 -15.765625 L 0.6875 -15.765625 Z M 0.6875 -19.4375 "/></g></g></g><g fill="#323748" fill-opacity="1"><g transform="translate(86.588102, 343.973115)"><g><path d="M 20.109375 -14.546875 L 20 -14.546875 C 19.925781 -14.140625 19.835938 -13.6875 19.734375 -13.1875 C 19.628906 -12.6875 19.53125 -12.222656 19.4375 -11.796875 C 19.34375 -11.367188 19.257812 -11.039062 19.1875 -10.8125 L 16.265625 0 L 10.453125 0 L 7.34375 -11.09375 C 7.269531 -11.332031 7.160156 -11.796875 7.015625 -12.484375 C 6.878906 -13.171875 6.796875 -13.859375 6.765625 -14.546875 L 6.640625 -14.546875 L 6.640625 -3.59375 L 8.234375 -3.59375 L 8.234375 0 L 0.6875 0 L 0.6875 -3.59375 L 2.203125 -3.59375 L 2.203125 -15.859375 L 0.71875 -15.859375 L 0.71875 -19.4375 L 11.265625 -19.4375 L 14.078125 -9.03125 L 16.75 -19.4375 L 27.34375 -19.4375 L 27.34375 -15.859375 L 25.8125 -15.859375 L 25.8125 -3.609375 L 27.34375 -3.609375 L 27.34375 0 L 18.546875 0 L 18.546875 -3.609375 L 20.109375 -3.609375 Z M 20.109375 -14.546875 "/></g></g></g><g fill="#323748" fill-opacity="1"><g transform="translate(118.512668, 343.973115)"><g><path d="M 0.6875 -19.4375 L 17.46875 -19.4375 L 17.46875 -13.296875 L 12.65625 -13.296875 L 12.65625 -15.765625 L 8.203125 -15.765625 L 8.203125 -11.9375 L 13.484375 -11.9375 L 13.484375 -8.234375 L 8.203125 -8.234375 L 8.203125 -3.703125 L 12.65625 -3.703125 L 12.65625 -6.28125 L 17.46875 -6.28125 L 17.46875 0 L 0.6875 0 L 0.6875 -3.703125 L 2.453125 -3.703125 L 2.453125 -15.765625 L 0.6875 -15.765625 Z M 0.6875 -19.4375 "/></g></g></g><g fill="#323748" fill-opacity="1"><g transform="translate(140.565166, 343.973115)"><g/></g></g><g fill="#323748" fill-opacity="1"><g transform="translate(151.410792, 343.973115)"><g><path d="M 1.96875 -12.703125 L 0.6875 -15.796875 C 1.226562 -16.054688 1.738281 -16.3125 2.21875 -16.5625 C 2.707031 -16.8125 3.21875 -17.15625 3.75 -17.59375 C 4.289062 -18.03125 4.894531 -18.644531 5.5625 -19.4375 L 10.515625 -19.4375 L 10.515625 -3.703125 L 13.09375 -3.703125 L 13.09375 0 L 1.96875 0 L 1.96875 -3.703125 L 4.75 -3.703125 L 4.75 -14.015625 Z M 1.96875 -12.703125 "/></g></g></g><g fill="#323748" fill-opacity="1"><g transform="translate(169.097339, 343.973115)"><g><path d="M 8.40625 0.328125 C 6.863281 0.328125 5.488281 -0.0390625 4.28125 -0.78125 C 3.070312 -1.519531 2.125 -2.640625 1.4375 -4.140625 C 0.757812 -5.640625 0.421875 -7.53125 0.421875 -9.8125 C 0.421875 -11.78125 0.753906 -13.515625 1.421875 -15.015625 C 2.085938 -16.515625 3.007812 -17.6875 4.1875 -18.53125 C 5.363281 -19.375 6.722656 -19.796875 8.265625 -19.796875 C 10.078125 -19.796875 11.570312 -19.375 12.75 -18.53125 C 13.925781 -17.6875 14.800781 -16.503906 15.375 -14.984375 C 15.957031 -13.460938 16.25 -11.675781 16.25 -9.625 C 16.25 -7.5625 15.941406 -5.785156 15.328125 -4.296875 C 14.710938 -2.816406 13.828125 -1.675781 12.671875 -0.875 C 11.515625 -0.0703125 10.09375 0.328125 8.40625 0.328125 Z M 8.40625 -3.984375 C 9.050781 -3.984375 9.585938 -4.5 10.015625 -5.53125 C 10.441406 -6.570312 10.65625 -7.9375 10.65625 -9.625 C 10.65625 -10.738281 10.546875 -11.71875 10.328125 -12.5625 C 10.117188 -13.414062 9.832031 -14.085938 9.46875 -14.578125 C 9.101562 -15.078125 8.691406 -15.328125 8.234375 -15.328125 C 7.898438 -15.347656 7.550781 -15.128906 7.1875 -14.671875 C 6.820312 -14.210938 6.519531 -13.570312 6.28125 -12.75 C 6.039062 -11.925781 5.921875 -10.945312 5.921875 -9.8125 C 5.921875 -8.625 6.050781 -7.585938 6.3125 -6.703125 C 6.570312 -5.828125 6.890625 -5.15625 7.265625 -4.6875 C 7.648438 -4.21875 8.03125 -3.984375 8.40625 -3.984375 Z M 8.40625 -3.984375 "/></g></g></g><g fill="#323748" fill-opacity="1"><g transform="translate(189.648178, 343.973115)"><g><path d="M 9.921875 0 L 0.6875 0 L 0.6875 -3.59375 L 3.109375 -3.59375 L 7.203125 -8.90625 L 2.171875 -15.828125 L 0.71875 -15.828125 L 0.71875 -19.4375 L 11.734375 -19.4375 L 11.734375 -15.828125 L 10.125 -15.828125 L 12.84375 -12.125 L 15.6875 -15.828125 L 13.234375 -15.828125 L 13.234375 -19.4375 L 22.46875 -19.4375 L 22.46875 -15.828125 L 20.109375 -15.828125 L 15.90625 -10.453125 L 20.921875 -3.609375 L 22.53125 -3.609375 L 22.53125 0 L 11.4375 0 L 11.4375 -3.609375 L 13.015625 -3.609375 L 10.90625 -6.453125 L 10.3125 -7.234375 L 7.453125 -3.59375 L 9.921875 -3.59375 Z M 9.921875 0 "/></g></g></g><g fill="#323748" fill-opacity="1"><g transform="translate(216.766605, 343.973115)"><g/></g></g><g fill="#323748" fill-opacity="1"><g transform="translate(231.203095, 343.812887)"><g><path d="M 0.6875 0 L 0.6875 -6.953125 L 5.828125 -6.953125 C 5.828125 -6.390625 5.953125 -5.925781 6.203125 -5.5625 C 6.453125 -5.207031 6.765625 -4.929688 7.140625 -4.734375 C 7.515625 -4.535156 7.894531 -4.398438 8.28125 -4.328125 C 8.664062 -4.253906 9.003906 -4.210938 9.296875 -4.203125 C 9.628906 -4.203125 9.972656 -4.234375 10.328125 -4.296875 C 10.691406 -4.359375 11.003906 -4.488281 11.265625 -4.6875 C 11.523438 -4.894531 11.65625 -5.191406 11.65625 -5.578125 C 11.65625 -5.890625 11.457031 -6.144531 11.0625 -6.34375 C 10.675781 -6.550781 10.171875 -6.742188 9.546875 -6.921875 C 8.921875 -7.109375 8.226562 -7.304688 7.46875 -7.515625 C 6.71875 -7.734375 5.96875 -8 5.21875 -8.3125 C 4.46875 -8.625 3.773438 -9.023438 3.140625 -9.515625 C 2.515625 -10.003906 2.007812 -10.597656 1.625 -11.296875 C 1.238281 -11.992188 1.046875 -12.847656 1.046875 -13.859375 C 1.046875 -14.890625 1.253906 -15.773438 1.671875 -16.515625 C 2.097656 -17.265625 2.644531 -17.878906 3.3125 -18.359375 C 3.988281 -18.835938 4.703125 -19.195312 5.453125 -19.4375 C 6.210938 -19.675781 6.9375 -19.796875 7.625 -19.796875 C 8.78125 -19.796875 9.890625 -19.582031 10.953125 -19.15625 C 12.023438 -18.738281 12.835938 -18.015625 13.390625 -16.984375 L 13.671875 -19.296875 L 18.421875 -19.296875 L 18.421875 -12.375 L 13.421875 -12.375 C 13.421875 -13.40625 13.070312 -14.195312 12.375 -14.75 C 11.6875 -15.300781 10.859375 -15.578125 9.890625 -15.578125 C 9.484375 -15.578125 9.0625 -15.453125 8.625 -15.203125 C 8.195312 -14.953125 7.984375 -14.585938 7.984375 -14.109375 C 7.984375 -13.703125 8.179688 -13.351562 8.578125 -13.0625 C 8.972656 -12.78125 9.492188 -12.519531 10.140625 -12.28125 C 10.796875 -12.039062 11.507812 -11.796875 12.28125 -11.546875 C 13.0625 -11.304688 13.835938 -11.019531 14.609375 -10.6875 C 15.378906 -10.351562 16.085938 -9.957031 16.734375 -9.5 C 17.390625 -9.039062 17.914062 -8.476562 18.3125 -7.8125 C 18.707031 -7.144531 18.90625 -6.351562 18.90625 -5.4375 C 18.90625 -4.375 18.6875 -3.460938 18.25 -2.703125 C 17.8125 -1.953125 17.226562 -1.347656 16.5 -0.890625 C 15.769531 -0.441406 14.976562 -0.113281 14.125 0.09375 C 13.269531 0.3125 12.425781 0.421875 11.59375 0.421875 C 10.195312 0.421875 9.019531 0.15625 8.0625 -0.375 C 7.101562 -0.914062 6.359375 -1.5 5.828125 -2.125 L 5.515625 0 Z M 0.6875 0 "/></g></g></g><g fill="#323748" fill-opacity="1"><g transform="translate(254.676843, 343.812887)"><g><path d="M 22.3125 0 L 11.234375 0 L 11.234375 -3.609375 L 13.859375 -3.609375 L 13.28125 -5.5 L 7.625 -5.5 L 7.046875 -3.609375 L 9.1875 -3.609375 L 9.1875 0 L 0.421875 0 L 0.421875 -3.609375 L 2.296875 -3.609375 L 6.015625 -15.734375 L 4.890625 -15.734375 L 4.890625 -19.296875 L 15.484375 -19.296875 L 20.375 -3.609375 L 22.3125 -3.609375 Z M 8.640625 -8.8125 L 12.265625 -8.8125 L 10.4375 -14.765625 Z M 8.640625 -8.8125 "/></g></g></g><g fill="#323748" fill-opacity="1"><g transform="translate(281.271182, 343.812887)"><g><path d="M 11.59375 -6.1875 L 11.734375 -6.1875 C 11.773438 -6.570312 11.878906 -7.082031 12.046875 -7.71875 C 12.222656 -8.351562 12.453125 -9.007812 12.734375 -9.6875 L 15.234375 -15.703125 L 13.78125 -15.703125 L 13.78125 -19.296875 L 21.625 -19.296875 L 21.625 -15.703125 L 20.265625 -15.703125 L 13.640625 0 L 8.5625 0 L 1.25 -15.703125 L -0.28125 -15.703125 L -0.28125 -19.296875 L 9.890625 -19.296875 L 9.890625 -15.703125 L 8.390625 -15.703125 L 10.734375 -9.53125 C 10.960938 -8.84375 11.15625 -8.207031 11.3125 -7.625 C 11.476562 -7.050781 11.570312 -6.570312 11.59375 -6.1875 Z M 11.59375 -6.1875 "/></g></g></g><g fill="#323748" fill-opacity="1"><g transform="translate(306.484727, 343.812887)"><g><path d="M 0.6875 -19.296875 L 17.34375 -19.296875 L 17.34375 -13.203125 L 12.5625 -13.203125 L 12.5625 -15.65625 L 8.140625 -15.65625 L 8.140625 -11.84375 L 13.390625 -11.84375 L 13.390625 -8.171875 L 8.140625 -8.171875 L 8.140625 -3.671875 L 12.5625 -3.671875 L 12.5625 -6.234375 L 17.34375 -6.234375 L 17.34375 0 L 0.6875 0 L 0.6875 -3.671875 L 2.421875 -3.671875 L 2.421875 -15.65625 L 0.6875 -15.65625 Z M 0.6875 -19.296875 "/></g></g></g></svg>